<?xml version="1.0" encoding="UTF-8"?> <svg xmlns="http://www.w3.org/2000/svg" width="1178" height="480" viewBox="0 0 1178 480" fill="none"><path d="M1143.1 180.2C1142.9 218.5 1142.6 317.5 1142.6 317.5C1142.6 333.8 1138.3 346.1 1129.7 354.4C1121.1 362.7 1109.1 366.8 1093.6 366.8C1078.3 366.8 1066.4 362.7 1057.8 354.4C1049.2 346.1 1044.9 333.8 1044.9 317.5V180.2H1009.6V316.9C1009.6 334.5 1013.3 349.3 1020.8 361.5C1028.2 373.7 1038.3 382.8 1051 388.8C1063.7 394.8 1077.8 397.8 1093.3 397.8C1108.8 397.8 1122.9 394.8 1135.8 388.8C1148.6 382.8 1158.8 373.7 1166.5 361.5C1174.1 349.3 1178 334.4 1178 316.9V180.2H1143.1Z" fill="#DB0F67"></path><path d="M115.3 285C126.5 281.1 135.3 275 142 266.7C148.6 258.4 151.9 248.1 151.9 235.7C151.9 225.4 149.2 216 143.8 207.7C138.4 199.3 130.5 192.7 119.9 187.7C109.4 182.7 96.8 180.3 82.1 180.3H0V395.7H86.2C100.5 395.7 113 393.2 123.7 388.1C134.4 383 142.7 376.1 148.3 367.3C154 358.5 156.8 348.7 156.8 337.7C156.8 324.9 152.8 313.4 144.7 303.3C136.7 293.1 126.9 287 115.3 285ZM35.3 209H79C90.6 209 99.6 211.7 106.1 217.2C112.6 222.7 115.9 230.3 115.9 240C115.9 249.9 112.6 257.5 106.1 262.8C99.6 268.1 90.5 270.7 79 270.7H35.3V209ZM111.3 358.1C104.5 363.9 95.1 366.8 83.1 366.8H35.4V299.5H81.9C93.9 299.5 103.5 302.6 110.7 308.8C117.9 315 121.5 323.4 121.5 333.9C121.5 344.3 118.1 352.3 111.3 358.1Z" fill="#DB0F67"></path><path d="M230.6 249.6V224.8H195.3V395.6H230.6V305.7C230.6 288.3 234.2 276.2 241.3 269.1C248.4 262.1 258.9 258.6 272.8 258.6H281.8V222C270 222 259.8 224.4 251.3 229.3C242.6 234.2 235.8 241 230.6 249.6Z" fill="#DB0F67"></path><path d="M354.9 224.8H316.2V395.6H354.9V224.8Z" fill="#DB0F67"></path><path d="M734.2 249.6C728.4 241.7 720.4 235.2 710.2 229.9C700 224.6 688.2 222 675 222C660.1 222 646.5 225.7 634.2 233C621.9 240.3 612.2 250.6 605.1 263.8C598 277 594.4 292.2 594.4 309.4C594.4 326.6 598 341.9 605.1 355.4C612.2 368.9 621.9 379.5 634.2 387C646.5 394.5 660.1 398.3 675 398.3C688 398.3 699.6 395.6 709.9 390.1C720.1 384.6 728.2 377.9 734.2 369.8V398.3C734.2 414.8 729.8 427.4 721 436.1C712.2 444.8 700.7 449.1 686.4 449.1C674.2 449.1 663.7 446.4 654.9 440.9C646.1 435.4 640.4 428.2 637.7 419.4H602.7C604.8 438 613.4 452.7 628.7 463.6C644 474.4 663.2 479.9 686.3 479.9C703.7 479.9 718.6 476.4 731.1 469.4C743.6 462.4 753.2 452.7 759.8 440.4C766.4 428.1 769.7 414.1 769.7 398.4V224.8H734.1V249.6H734.2ZM727 340.9C722.1 349.7 715.8 356.3 707.9 360.9C700 365.4 691.6 367.7 682.5 367.7C673.6 367.7 665.2 365.4 657.2 360.7C649.2 356.1 642.8 349.3 638 340.4C633.1 331.5 630.7 321.2 630.7 309.4C630.7 297.6 633.1 287.4 638 278.9C642.9 270.3 649.2 263.8 657.1 259.4C665 255 673.4 252.7 682.5 252.7C691.6 252.7 700.1 255 707.9 259.5C715.7 264 722.1 270.7 727 279.3C731.9 288 734.3 298.2 734.3 310C734.2 321.8 731.8 332.1 727 340.9Z" fill="#DB0F67"></path><path d="M932.9 232.6C920.3 225.6 905.9 222.1 889.8 222.1C873.1 222.1 858.2 225.7 845.3 232.9C832.4 240.1 822.4 250.4 815.2 263.7C808.1 277 804.5 292.5 804.5 310C804.5 327.6 808.2 343 815.5 356.3C822.8 369.6 833 380 845.9 387.3C858.8 394.6 873.4 398.3 889.8 398.3C909.8 398.3 926.6 393.3 940.2 383.3C953.7 373.3 963.1 360.4 968.2 344.7H930.1C922.2 360.6 908.8 368.6 889.8 368.6C876.6 368.6 865.4 364.5 856.3 356.2C847.2 347.9 842.1 337 841.1 323.3H971.6C972.4 318.1 972.8 312.4 972.8 305.9C972.8 289.4 969.3 274.8 962.3 262C955.3 249.5 945.5 239.6 932.9 232.6ZM841.5 294.9C843.2 281.7 848.3 271.2 857 263.4C865.7 255.7 876.1 251.8 888.3 251.8C901.7 251.8 913 255.7 922.1 263.6C931.2 271.5 935.8 281.9 936 294.9H841.5Z" fill="#DB0F67"></path><path d="M524.1 180.2V247.1C518.5 241.6 506.4 232.9 498.2 229.3C487.4 224.4 476.3 222 465.2 222C450.1 222 436.4 225.7 424.1 233C411.8 240.3 402.1 250.6 395 263.8C387.9 277 384.3 292.2 384.3 309.4C384.3 326.6 387.9 341.9 395 355.4C402.1 368.9 411.8 379.5 424.1 387C436.4 394.5 450 398.3 464.9 398.3C478.1 398.3 489.9 395.6 500.1 390.2C510.3 384.8 518.3 378 524.1 369.7V395.4H559.7L560 180H524.1V180.2ZM516.8 340.9C511.9 349.7 505.6 356.3 497.7 360.9C489.8 365.4 481.4 367.7 472.3 367.7C463.4 367.7 455 365.4 447 360.7C439 356.1 432.6 349.3 427.8 340.4C422.9 331.5 420.5 321.2 420.5 309.4C420.5 297.6 422.9 287.4 427.8 278.9C432.7 270.3 439 263.8 446.9 259.4C454.8 255 463.2 252.7 472.3 252.7C481.4 252.7 489.9 255 497.7 259.5C505.6 264 511.9 270.7 516.8 279.3C521.7 288 524.1 298.2 524.1 310C524.1 321.8 521.7 332.1 516.8 340.9Z" fill="#DB0F67"></path><path d="M1138.3 140.3C1130.9 134 1123.3 128 1115.5 122.3C1099.9 110.8 1083.5 100.3 1066.8 90.5C1033.2 71 997.8 54.6 961.2 41.3C888 14.7 809.9 1.20001 731.7 0.100007C712.1 6.86664e-06 692.3 0.599988 672.8 2.79999C663 3.59999 653.3 5.30001 643.5 6.70001L629 9.40003C624.1 10.2 619.3 11.3 614.5 12.5C595.2 16.7 576.2 22.4 557.6 28.9C538.9 35.4 520.7 43 502.9 51.7C467.3 68.9 433.4 89.8 402 113.8C370.6 138 342.7 164.6 316.5 195.2L355.2 196.1C374.6 174.3 396.3 153.9 419 135.2C448.3 111.2 480 90.2 513.5 72.6C530.2 63.8 547.5 55.8 565.2 49C582.9 42.1 600.9 36.1 619.3 31.4C623.9 30.1 628.5 29 633.1 28L647 24.9C656.4 23.3 665.7 21.3 675.1 20.2C693.9 17.4 712.9 16.3 732 15.7C808.6 14.2 885.7 24.8 958.9 48.7C995.5 60.6 1031.2 75.7 1065.1 93.9C1082.1 103.1 1098.7 113 1114.6 123.9C1122.6 129.3 1130.4 135.1 1138 141.1C1145.5 147.2 1153.1 153.3 1159.3 160.7C1153 153 1145.6 146.6 1138.3 140.3Z" fill="#DB0F67"></path></svg> 